# xmcd
#
# Track frame offsets:
#	150
#	22067
#	41747
#	60600
#	79732
#	96060
#	113890
#	130470
#	151582
#	167215
#	188465
#	204595
#	221792
#	238915
#
# Disc length: 3452 seconds
#
# Revision: 2
# Processed by: cddbd v1.4b41PL1 Copyright (c) Steve Scherf et al.
# Submitted via: EZCDDA 4.3.2
#
DISCID=c10d7a0e
DTITLE=김원중 - 1999 김원중
DYEAR=1900
DGENRE=
TTITLE0=꿈꾸는 사람만이 세상을 가질 수 있지
TTITLE1=모항가는 길
TTITLE2=사랑, 그 날들
TTITLE3=봉숭아
TTITLE4=내 사랑은
TTITLE5=꿈
TTITLE6=땅
TTITLE7=바닷가 우체국
TTITLE8=네가 있기에
TTITLE9=가을 가을 가을
TTITLE10=아름다운 날 있으리
TTITLE11=바람 잘 날 없어라
TTITLE12=바위섬
TTITLE13=직녀에게
EXTD=
EXTT0=
EXTT1=
EXTT2=
EXTT3=
EXTT4=
EXTT5=
EXTT6=
EXTT7=
EXTT8=
EXTT9=
EXTT10=
EXTT11=
EXTT12=
EXTT13=
PLAYORDER=
